<svg id="Layer_1" data-name="Layer 1" xmlns="http://www.w3.org/2000/svg" xmlns:xlink="http://www.w3.org/1999/xlink" viewBox="0 0 40 12.59"><defs><style>.cls-1{fill:none;}.cls-2{clip-path:url(#clip-path);}.cls-3{fill:#fff;}.cls-4{fill:#fffeff;}.cls-5{fill:#fffdff;}.cls-6{fill:#fefcff;}.cls-7{fill:#fefbff;}.cls-8{fill:#fefaff;}.cls-9{fill:#fef9ff;}.cls-10{fill:#fef8ff;}.cls-11{fill:#fef7ff;}.cls-12{fill:#fdf6ff;}.cls-13{fill:#fdf5ff;}.cls-14{fill:#fdf4ff;}.cls-15{fill:#fdf3ff;}.cls-16{fill:#fdf2ff;}.cls-17{fill:#fcf1ff;}.cls-18{fill:#fcf0ff;}.cls-19{fill:#fcefff;}.cls-20{fill:#fceeff;}.cls-21{fill:#fcedff;}.cls-22{fill:#fcecff;}.cls-23{fill:#fbebff;}.cls-24{fill:#fbeaff;}.cls-25{fill:#fbe9ff;}.cls-26{fill:#fbe8ff;}.cls-27{fill:#fbe7ff;}.cls-28{fill:#fae6ff;}.cls-29{fill:#fae5ff;}.cls-30{fill:#fae4ff;}.cls-31{fill:#fae3ff;}.cls-32{fill:#fae2ff;}.cls-33{fill:#fae1ff;}.cls-34{fill:#f9e0ff;}.cls-35{fill:#f9dfff;}.cls-36{fill:#f9deff;}.cls-37{fill:#f9ddff;}.cls-38{fill:#f9dcff;}.cls-39{fill:#f8dbff;}.cls-40{fill:#f8daff;}.cls-41{fill:#f8d9ff;}.cls-42{fill:#f8d8ff;}.cls-43{fill:#f8d7ff;}.cls-44{fill:#f8d6ff;}.cls-45{fill:#f7d5ff;}.cls-46{fill:#f7d4ff;}.cls-47{fill:#f7d3ff;}.cls-48{fill:#f7d2ff;}.cls-49{fill:#f7d1ff;}.cls-50{fill:#f6d0ff;}.cls-51{fill:#f6cfff;}.cls-52{fill:#f6ceff;}.cls-53{fill:#f6ccff;}.cls-54{fill:#f6cbff;}.cls-55{fill:#f6caff;}.cls-56{fill:#f5c9ff;}.cls-57{fill:#f5c8ff;}.cls-58{fill:#f5c7ff;}.cls-59{fill:#f5c6ff;}.cls-60{fill:#f5c5ff;}.cls-61{fill:#f4c4ff;}.cls-62{fill:#f4c3ff;}.cls-63{fill:#f4c2ff;}.cls-64{fill:#f4c1ff;}.cls-65{fill:#f4c0ff;}.cls-66{fill:#f4bfff;}.cls-67{fill:#f3beff;}.cls-68{fill:#f3bdff;}.cls-69{fill:#f3bcff;}.cls-70{fill:#f3bbff;}.cls-71{fill:#f3baff;}.cls-72{fill:#f2b9ff;}.cls-73{fill:#f2b8ff;}.cls-74{fill:#f2b7ff;}.cls-75{fill:#f2b6ff;}.cls-76{fill:#f2b5ff;}.cls-77{fill:#f2b4ff;}.cls-78{fill:#f1b3ff;}.cls-79{fill:#f1b2ff;}.cls-80{fill:#f1b1ff;}.cls-81{fill:#f1b0ff;}.cls-82{fill:#f1afff;}.cls-83{fill:#f0aeff;}.cls-84{fill:#f0adff;}.cls-85{fill:#f0acff;}.cls-86{fill:#f0abff;}.cls-87{fill:#f0aaff;}.cls-88{fill:#f0a9ff;}.cls-89{fill:#efa8ff;}.cls-90{fill:#efa7ff;}.cls-91{fill:#efa6ff;}.cls-92{fill:#efa5ff;}.cls-93{fill:#efa4ff;}.cls-94{fill:#eea3ff;}.cls-95{fill:#eea2ff;}.cls-96{fill:#eea1ff;}.cls-97{fill:#eea0ff;}.cls-98{fill:#ee9fff;}.cls-99{fill:#ee9eff;}.cls-100{fill:#ed9dff;}.cls-101{fill:#ed9cff;}.cls-102{fill:#ed9bff;}</style><clipPath id="clip-path" transform="translate(0 -13.22)"><path class="cls-1" d="M20,15.06c-2.64-.91-4.71-.35-2.23,4.21q-.86,3.24,1.87,6.13a4.34,4.34,0,0,1,1.45-4.51q1.59.78,1.59,4.46c1.39-1.24,1.84-3.29,1.36-6.13C25.78,16.22,26.28,13.22,20,15.06Z"/></clipPath></defs><title>Brand Floris Dent</title><g class="cls-2"><rect class="cls-3" x="15.29" width="1.37" height="12.18"/><rect class="cls-3" x="16.66" width="0.09" height="12.18"/><rect class="cls-4" x="16.74" width="0.09" height="12.18"/><rect class="cls-5" x="16.83" width="0.09" height="12.18"/><rect class="cls-6" x="16.91" width="0.09" height="12.18"/><rect class="cls-7" x="17" width="0.09" height="12.18"/><rect class="cls-8" x="17.08" width="0.09" height="12.18"/><rect class="cls-9" x="17.17" width="0.09" height="12.18"/><rect class="cls-10" x="17.25" width="0.09" height="12.18"/><rect class="cls-11" x="17.34" width="0.09" height="12.18"/><rect class="cls-12" x="17.43" width="0.09" height="12.18"/><rect class="cls-13" x="17.51" width="0.09" height="12.18"/><rect class="cls-14" x="17.6" width="0.09" height="12.18"/><rect class="cls-15" x="17.68" width="0.09" height="12.18"/><rect class="cls-16" x="17.77" width="0.09" height="12.18"/><rect class="cls-17" x="17.85" width="0.09" height="12.18"/><rect class="cls-18" x="17.94" width="0.09" height="12.18"/><rect class="cls-19" x="18.02" width="0.09" height="12.18"/><rect class="cls-20" x="18.11" width="0.09" height="12.18"/><rect class="cls-21" x="18.19" width="0.09" height="12.18"/><rect class="cls-22" x="18.28" width="0.09" height="12.18"/><rect class="cls-23" x="18.36" width="0.09" height="12.18"/><rect class="cls-24" x="18.45" width="0.09" height="12.18"/><rect class="cls-25" x="18.53" width="0.09" height="12.18"/><rect class="cls-26" x="18.62" width="0.09" height="12.18"/><rect class="cls-27" x="18.7" width="0.09" height="12.18"/><rect class="cls-28" x="18.79" width="0.09" height="12.18"/><rect class="cls-29" x="18.87" width="0.09" height="12.18"/><rect class="cls-30" x="18.96" width="0.09" height="12.18"/><rect class="cls-31" x="19.04" width="0.09" height="12.18"/><rect class="cls-32" x="19.13" width="0.09" height="12.18"/><rect class="cls-33" x="19.21" width="0.09" height="12.18"/><rect class="cls-34" x="19.3" width="0.09" height="12.18"/><rect class="cls-35" x="19.38" width="0.09" height="12.18"/><rect class="cls-36" x="19.47" width="0.09" height="12.18"/><rect class="cls-37" x="19.56" width="0.09" height="12.18"/><rect class="cls-38" x="19.64" width="0.09" height="12.18"/><rect class="cls-39" x="19.73" width="0.09" height="12.18"/><rect class="cls-40" x="19.81" width="0.09" height="12.18"/><rect class="cls-41" x="19.9" width="0.09" height="12.18"/><rect class="cls-42" x="19.98" width="0.09" height="12.18"/><rect class="cls-43" x="20.07" width="0.09" height="12.18"/><rect class="cls-44" x="20.15" width="0.09" height="12.18"/><rect class="cls-45" x="20.24" width="0.09" height="12.18"/><rect class="cls-46" x="20.32" width="0.09" height="12.18"/><rect class="cls-47" x="20.41" width="0.09" height="12.18"/><rect class="cls-48" x="20.49" width="0.09" height="12.18"/><rect class="cls-49" x="20.58" width="0.09" height="12.18"/><rect class="cls-50" x="20.66" width="0.09" height="12.18"/><rect class="cls-51" x="20.75" width="0.09" height="12.18"/><rect class="cls-52" x="20.83" width="0.09" height="12.18"/><rect class="cls-53" x="20.92" width="0.09" height="12.18"/><rect class="cls-54" x="21" width="0.09" height="12.18"/><rect class="cls-55" x="21.09" width="0.09" height="12.18"/><rect class="cls-56" x="21.17" width="0.09" height="12.18"/><rect class="cls-57" x="21.26" width="0.09" height="12.18"/><rect class="cls-58" x="21.34" width="0.09" height="12.18"/><rect class="cls-59" x="21.43" width="0.09" height="12.18"/><rect class="cls-60" x="21.52" width="0.09" height="12.18"/><rect class="cls-61" x="21.6" width="0.09" height="12.18"/><rect class="cls-62" x="21.69" width="0.09" height="12.18"/><rect class="cls-63" x="21.77" width="0.09" height="12.18"/><rect class="cls-64" x="21.86" width="0.09" height="12.18"/><rect class="cls-65" x="21.94" width="0.09" height="12.18"/><rect class="cls-66" x="22.03" width="0.09" height="12.18"/><rect class="cls-67" x="22.11" width="0.09" height="12.18"/><rect class="cls-68" x="22.2" width="0.09" height="12.18"/><rect class="cls-69" x="22.28" width="0.09" height="12.18"/><rect class="cls-70" x="22.37" width="0.09" height="12.18"/><rect class="cls-71" x="22.45" width="0.09" height="12.18"/><rect class="cls-72" x="22.54" width="0.09" height="12.18"/><rect class="cls-73" x="22.62" width="0.09" height="12.18"/><rect class="cls-74" x="22.71" width="0.09" height="12.18"/><rect class="cls-75" x="22.79" width="0.09" height="12.18"/><rect class="cls-76" x="22.88" width="0.09" height="12.18"/><rect class="cls-77" x="22.96" width="0.09" height="12.18"/><rect class="cls-78" x="23.05" width="0.09" height="12.18"/><rect class="cls-79" x="23.13" width="0.09" height="12.18"/><rect class="cls-80" x="23.22" width="0.09" height="12.18"/><rect class="cls-81" x="23.3" width="0.09" height="12.18"/><rect class="cls-82" x="23.39" width="0.09" height="12.18"/><rect class="cls-83" x="23.48" width="0.09" height="12.18"/><rect class="cls-84" x="23.56" width="0.09" height="12.18"/><rect class="cls-85" x="23.65" width="0.09" height="12.18"/><rect class="cls-86" x="23.73" width="0.09" height="12.18"/><rect class="cls-87" x="23.82" width="0.09" height="12.18"/><rect class="cls-88" x="23.9" width="0.09" height="12.18"/><rect class="cls-89" x="23.99" width="0.09" height="12.18"/><rect class="cls-90" x="24.07" width="0.09" height="12.18"/><rect class="cls-91" x="24.16" width="0.09" height="12.18"/><rect class="cls-92" x="24.24" width="0.09" height="12.18"/><rect class="cls-93" x="24.33" width="0.09" height="12.18"/><rect class="cls-94" x="24.41" width="0.09" height="12.18"/><rect class="cls-95" x="24.5" width="0.09" height="12.18"/><rect class="cls-96" x="24.58" width="0.09" height="12.18"/><rect class="cls-97" x="24.67" width="0.09" height="12.18"/><rect class="cls-98" x="24.75" width="0.09" height="12.18"/><rect class="cls-99" x="24.84" width="0.09" height="12.18"/><rect class="cls-100" x="24.92" width="0.09" height="12.18"/><rect class="cls-101" x="25.01" width="0.09" height="12.18"/><rect class="cls-102" x="25.09" width="0.09" height="12.18"/><rect class="cls-102" x="25.18" width="1.1" height="12.18"/></g><path d="M19.86,25.81l-.31-.33c-1.83-1.94-2.47-4-1.9-6.19-1.13-2.09-1.4-3.51-.8-4.23s1.63-.64,3.15-.13c2.65-.77,4.32-.73,5,.1s.34,2.2-.82,4.22c.48,2.85,0,4.93-1.4,6.19l-.2.17v-.26c0-2.33-.49-3.78-1.45-4.32a4.25,4.25,0,0,0-1.36,4.34Zm1.21-5.06.07,0c1.06.52,1.61,2,1.65,4.29,1.2-1.22,1.58-3.18,1.13-5.83v0l0,0c1.1-1.91,1.4-3.29.85-4s-2.19-.76-4.76,0l0,0,0,0c-1.44-.49-2.48-.48-2.92.05s-.24,2,.84,4l0,0v0A6,6,0,0,0,19.43,25,4.47,4.47,0,0,1,21,20.8Z" transform="translate(0 -13.22)"/><path d="M3,16.6a.32.32,0,0,1-.16-.06,1.68,1.68,0,0,0-1-.29,2,2,0,0,0-.44.06,4,4,0,0,0-.55.16v2.24a1.77,1.77,0,0,1,.79-.25,4.36,4.36,0,0,1,1,.11c.27.08.4.38.4.93a1.39,1.39,0,0,1-.13.65c-.08.18-.19.27-.31.27a3,3,0,0,1-.49-.06,4.21,4.21,0,0,0-.49-.05,2,2,0,0,0-.79.31v4.26a1.39,1.39,0,0,1-.14.65q-.15.27-.33.27c-.12,0-.22-.09-.3-.26A1.82,1.82,0,0,1,0,24.88V16.3c0-.36,0-.62,0-.8a1.56,1.56,0,0,1,.12-.66c.09-.18.19-.27.32-.27a.3.3,0,0,1,.21.1,5.47,5.47,0,0,1,.67-.2,2.78,2.78,0,0,1,.54-.06,1.88,1.88,0,0,1,.91.32,1.11,1.11,0,0,1,.68.93,1.5,1.5,0,0,1-.13.66C3.25,16.51,3.14,16.6,3,16.6Z" transform="translate(0 -13.22)"/><path d="M4.9,24.08c0,.86-.15,1.29-.43,1.29-.13,0-.23-.09-.31-.26A1.41,1.41,0,0,1,4,24.45V15.07a1.5,1.5,0,0,1,.13-.65.38.38,0,0,1,.32-.23q.18,0,.3.24a1.43,1.43,0,0,1,.12.64Z" transform="translate(0 -13.22)"/><path d="M7,25.48c-.39,0-.72-.29-1-.86a5.88,5.88,0,0,1-.48-2.52,7.66,7.66,0,0,1,.38-2.67c.32-.92.76-1.39,1.33-1.39s.75.37,1,1.09a7.65,7.65,0,0,1,.33,2.42,8.17,8.17,0,0,1-.39,2.69C7.87,25.07,7.48,25.48,7,25.48Zm.19-5.64c-.26,0-.46.24-.61.75a5.28,5.28,0,0,0-.19,1.51,3,3,0,0,0,.21,1.25c.12.23.25.34.4.34s.34-.13.47-.4A3.05,3.05,0,0,0,7.71,22C7.73,20.57,7.56,19.84,7.18,19.84Z" transform="translate(0 -13.22)"/><path d="M11.71,20.19c0,.69-.17,1-.44,1s-.39-.3-.39-.89l0-.68c-.47.16-.81.68-1,1.57v3.41a1.49,1.49,0,0,1-.12.64c-.08.17-.19.25-.31.25s-.23-.09-.3-.27a1.58,1.58,0,0,1-.1-.62V19.57c0-.28,0-.49,0-.63a1.67,1.67,0,0,1,.1-.63c.07-.17.17-.26.3-.26s.38.26.42.77a1.54,1.54,0,0,1,1.23-.89q.63,0,.63,1.8Z" transform="translate(0 -13.22)"/><path d="M13.15,21.9c0,.26,0,.67,0,1.24s0,1,0,1.24a1.54,1.54,0,0,1-.12.65c-.08.17-.19.25-.31.25s-.23-.08-.31-.25a1.53,1.53,0,0,1-.13-.65c0-.26,0-.67,0-1.24s0-1,0-1.24,0-.91,0-1.52,0-1.11,0-1.51a1.54,1.54,0,0,1,.12-.65c.08-.17.18-.25.31-.25s.23.08.31.25a1.54,1.54,0,0,1,.12.65c0,.4,0,.91,0,1.51S13.15,21.49,13.15,21.9Zm-.27-5c-.13,0-.25-.1-.35-.3a1.87,1.87,0,0,1,0-1.42c.1-.2.22-.29.35-.29s.25.09.35.29a1.76,1.76,0,0,1,0,1.42C13.13,16.83,13,16.93,12.88,16.93Z" transform="translate(0 -13.22)"/><path d="M16.18,20.11c-.21,0-.33-.18-.37-.56a.8.8,0,0,0-.26-.05c-.51,0-.76.15-.76.45s.15.41.46.71a6.76,6.76,0,0,1,.84,1,2.93,2.93,0,0,1,.45,1.6A2.67,2.67,0,0,1,16,25a1.23,1.23,0,0,1-1.76.21,1.38,1.38,0,0,1-.47-1.12c0-.45.13-.68.38-.68a.87.87,0,0,1,.41.2.88.88,0,0,0,.42.19c.43,0,.64-.18.65-.55a1.15,1.15,0,0,0-.45-.77,6.7,6.7,0,0,1-.83-.89A2.94,2.94,0,0,1,14,20a2.12,2.12,0,0,1,.67-1.84,2,2,0,0,1,1.19-.28.58.58,0,0,1,.47.18,1.35,1.35,0,0,1,.21.87C16.49,19.71,16.38,20.11,16.18,20.11Z" transform="translate(0 -13.22)"/><path d="M26.09,25.11c-.13,0-.23-.09-.32-.27a1.6,1.6,0,0,1-.13-.65c0-.45,0-1.13,0-2s0-1.59,0-2,0-1.25,0-2.26,0-1.76,0-2.26a1.81,1.81,0,0,1,.17-.74c.12-.25.24-.37.36-.37s.25.14.53.42a6,6,0,0,0,.59.56,5,5,0,0,1,1.6,2A8,8,0,0,1,29.71,21a8.52,8.52,0,0,1-.28,2.23A4.87,4.87,0,0,1,28.69,25a1.73,1.73,0,0,1-1.49.74,1.3,1.3,0,0,1-.54-.15A1.45,1.45,0,0,1,26.09,25.11Zm1.79-7a10.28,10.28,0,0,0-1.33-1.3v6.71a.88.88,0,0,0,.29.26.86.86,0,0,0,.36.08,1.13,1.13,0,0,0,1-.41,2.86,2.86,0,0,0,.45-1.05,5.67,5.67,0,0,0,.17-1.38A4.69,4.69,0,0,0,27.88,18.14Z" transform="translate(0 -13.22)"/><path d="M31.84,25.36a1.43,1.43,0,0,1-1.25-.78,4.49,4.49,0,0,1-.54-2.4,8.76,8.76,0,0,1,.43-2.91c.31-.88.74-1.31,1.27-1.31a1.19,1.19,0,0,1,.92.38,2.13,2.13,0,0,1,.49,1.56,2.26,2.26,0,0,1-.4,1.32,5.18,5.18,0,0,1-.71.77L31,23a1.38,1.38,0,0,0,.37.53.75.75,0,0,0,.5.18.92.92,0,0,0,.72-.37c.18-.23.32-.34.43-.34s.33.23.33.69A1.66,1.66,0,0,1,32.79,25,1.42,1.42,0,0,1,31.84,25.36Zm-.09-5.76c-.2,0-.36.14-.51.42a4.31,4.31,0,0,0-.33,1.26l.71-.66a5.64,5.64,0,0,0,.69-.76A.67.67,0,0,0,31.75,19.6Z" transform="translate(0 -13.22)"/><path d="M36.4,25.53c-.26,0-.41-.28-.44-.82l-.09-1.41c0-.5,0-1,0-1.4,0-.12,0-.32,0-.61s0-.48,0-.6v-.24c0-.13,0-.23,0-.32,0-.37,0-.56-.13-.56s-.36.25-.53.75a9.24,9.24,0,0,0-.42,1.89c0,.15,0,.36,0,.61s0,.42,0,.61,0,.33,0,.59,0,.46,0,.59a1.47,1.47,0,0,1-.13.66c-.08.17-.19.26-.32.26s-.23-.09-.31-.26a1.58,1.58,0,0,1-.13-.66c0-.12,0-.32,0-.58s0-.45,0-.58c0-.45,0-1.06,0-1.85s0-1.4,0-1.84c0-.14,0-.35,0-.62s0-.48,0-.61a1.48,1.48,0,0,1,.13-.64c.09-.17.19-.25.32-.25s.43.35.45,1.06v.08c.31-.67.64-1,1-1s.68.36.84,1.07A11.41,11.41,0,0,1,36.71,21v.92c0,.36,0,.81.06,1.37s.07,1,.07,1.35a1.49,1.49,0,0,1-.12.64C36.63,25.44,36.53,25.53,36.4,25.53Z" transform="translate(0 -13.22)"/><path d="M39.56,19.58h-.32a1,1,0,0,0-.3.06c0,1.83.06,3,.06,3.58v.72c0,1-.15,1.56-.46,1.56a.36.36,0,0,1-.3-.23,1.15,1.15,0,0,1-.14-.61c0-.17,0-.41,0-.73s0-.57,0-.74c0-.54,0-1.72-.06-3.51a5,5,0,0,1-.6-.11c-.27-.06-.4-.36-.4-.88a1.6,1.6,0,0,1,.12-.65c.08-.17.19-.26.31-.26a4.9,4.9,0,0,1,.55.08c0-.14,0-.38,0-.72s0-.51,0-.67a1.34,1.34,0,0,1,.13-.63c.09-.17.19-.25.32-.25.31,0,.47.56.47,1.69v.55a1.16,1.16,0,0,1,.32-.06.91.91,0,0,1,.5.1,1,1,0,0,1,.26.83,1.57,1.57,0,0,1-.12.65C39.79,19.5,39.69,19.58,39.56,19.58Z" transform="translate(0 -13.22)"/></svg>