<?xml version="1.0" standalone="no"?>
<!DOCTYPE svg PUBLIC "-//W3C//DTD SVG 20010904//EN"
 "http://www.w3.org/TR/2001/REC-SVG-20010904/DTD/svg10.dtd">
<svg version="1.0" xmlns="http://www.w3.org/2000/svg"
 width="396.000000pt" height="514.000000pt" viewBox="0 0 396.000000 514.000000"
 preserveAspectRatio="xMidYMid meet">

<g transform="translate(0.000000,514.000000) scale(0.100000,-0.100000)"
fill="#000000" stroke="none">
<path d="M2745 5004 c-308 -26 -737 -108 -1073 -205 l-103 -30 -107 35 c-304
98 -477 130 -692 131 -190 0 -236 -9 -360 -67 -65 -32 -101 -57 -156 -112
-125 -125 -174 -258 -174 -476 0 -315 110 -664 379 -1205 l94 -190 -17 -80
c-76 -351 -85 -699 -26 -1020 93 -505 361 -1009 795 -1495 52 -58 118 -129
148 -158 l55 -54 -38 184 c-48 232 -60 331 -60 488 1 395 138 788 388 1114 59
77 152 176 213 227 l48 40 43 -25 c115 -68 245 -221 329 -389 66 -131 100
-224 142 -393 67 -268 94 -485 106 -872 5 -151 12 -276 15 -279 8 -8 135 107
208 189 136 154 203 255 299 453 107 217 167 416 215 711 27 162 28 184 29
524 0 364 -6 449 -58 780 l-12 75 84 150 c199 356 329 674 393 965 18 85 23
133 22 255 0 135 -3 158 -27 230 -90 272 -312 435 -662 485 -79 11 -364 20
-440 14z m438 -140 c223 -31 395 -126 474 -262 60 -102 84 -201 84 -348 0
-274 -98 -590 -317 -1027 -41 -81 -94 -183 -119 -226 l-45 -79 15 -96 c165
-1023 12 -1847 -436 -2350 -63 -70 -67 -66 -69 69 0 50 -7 160 -15 245 -56
620 -205 1039 -460 1296 -97 98 -222 179 -261 170 -35 -9 -266 -242 -342 -344
-189 -256 -310 -530 -364 -824 -18 -100 -23 -160 -23 -323 0 -110 4 -231 8
-270 l8 -70 -46 50 c-298 326 -502 707 -614 1150 -44 173 -62 324 -68 545 -5
237 5 358 53 600 l27 135 -86 171 c-117 233 -168 356 -243 579 -76 228 -112
398 -120 560 -11 220 22 343 117 436 100 98 213 138 415 146 209 9 413 -23
690 -108 l130 -40 140 39 c377 107 808 184 1084 196 113 4 273 -4 383 -20z"/>
</g>
</svg>
